HIERARCHY
ROOT Hips
{
	OFFSET 0.000000 0.000000 0.000000
	CHANNELS 6 Xposition Yposition Zposition Zrotation Yrotation Xrotation 
	JOINT LHipJoint
	{
		OFFSET 0.000000 0.000000 0.000000
		CHANNELS 3 Zrotation Yrotation Xrotation
		JOINT LeftUpLeg
		{
			OFFSET 1.363060 -1.794630 0.839290
			CHANNELS 3 Zrotation Yrotation Xrotation
			JOINT LeftLeg
			{
				OFFSET 2.448110 -6.726130 0.000000
				CHANNELS 3 Zrotation Yrotation Xrotation
				JOINT LeftFoot
				{
					OFFSET 2.562200 -7.039590 0.000000
					CHANNELS 3 Zrotation Yrotation Xrotation
					JOINT LeftToeBase
					{
						OFFSET 0.157640 -0.433110 2.322550
						CHANNELS 3 Zrotation Yrotation Xrotation
						End Site
						{
							OFFSET 0.000000 0.000000 0.000000
						}
					}
				}
			}
		}
	}
	JOINT RHipJoint
	{
		OFFSET 0.000000 0.000000 0.000000
		CHANNELS 3 Zrotation Yrotation Xrotation
		JOINT RightUpLeg
		{
			OFFSET -1.305520 -1.794630 0.839290
			CHANNELS 3 Zrotation Yrotation Xrotation
			JOINT RightLeg
			{
				OFFSET -2.542530 -6.985550 0.000000
				CHANNELS 3 Zrotation Yrotation Xrotation
				JOINT RightFoot
				{
					OFFSET -2.568260 -7.056230 0.000000
					CHANNELS 3 Zrotation Yrotation Xrotation
					JOINT RightToeBase
					{
						OFFSET -0.164730 -0.452590 2.363150
						CHANNELS 3 Zrotation Yrotation Xrotation
						End Site
						{
							OFFSET 0.000000 0.000000 0.000000
						}
					}
				}
			}
		}
	}
}
MOTION
Frames: 32
Frame Time: 0.008333
-3.330996 15.801694 -0.088427 -134.279065 74.096927 -114.178506 -10.744497 -2.350306 -2.417214 -22.398093 8.012247 -61.144925 -2.067090 2.549645 42.952654 5.545927 20.454811 -26.818533 173.789500 -0.000000 -15.467100 8.562500 -3.354336 -8.089864 14.711016 -25.785127 -31.737995 0.888738 -5.704702 64.007758 1.054123 18.337376 7.271189 3.972900 0.000000 -86.729800
-3.174201 15.748749 -0.128058 -133.768559 73.780426 -114.105541 -10.821449 -2.510957 -2.458178 -21.447558 7.902513 -61.021766 -1.853605 2.716563 45.296645 5.681301 21.216985 -27.926508 173.113900 -0.000000 -16.517600 8.682257 -3.309210 -8.045091 14.140525 -25.650000 -31.645869 0.609235 -5.763377 65.519937 0.974679 19.337276 9.739375 5.045100 -0.000000 -87.563100
-3.020726 15.698534 -0.166196 -133.518546 73.494443 -114.278930 -10.881538 -2.636153 -2.533520 -20.673853 7.846962 -60.845610 -1.672395 2.877024 47.559238 5.779964 21.836755 -29.006375 172.459300 -0.000000 -16.950800 8.810829 -3.231823 -7.990574 13.537353 -25.412411 -31.633341 0.337125 -5.816266 67.054951 0.875813 20.276694 12.266664 6.218300 -0.000001 -87.979100
-2.870638 15.651951 -0.203263 -133.541379 73.229280 -114.703475 -10.926965 -2.724162 -2.639278 -20.084133 7.848527 -60.601450 -1.527026 3.024716 49.657510 5.847931 22.313044 -30.066863 171.833800 -0.000000 -17.075499 8.940705 -3.128547 -7.925544 12.929651 -25.067466 -31.698394 0.078497 -5.863165 68.591578 0.763339 21.093562 14.766950 7.426400 0.000001 -87.784600
-2.723950 15.609599 -0.239898 -133.840339 72.970757 -115.377189 -10.962053 -2.776398 -2.769019 -19.665547 7.900525 -60.276024 -1.416354 3.155301 51.533057 5.889827 22.653806 -31.086809 171.254200 -0.000000 -16.890000 9.065068 -3.006149 -7.850816 12.344208 -24.619211 -31.840152 -0.163671 -5.904801 70.113696 0.643560 21.718183 17.154403 8.583600 -0.000000 -86.911600
-2.580615 15.571862 -0.276792 -134.410448 72.703906 -116.291610 -10.991818 -2.796637 -2.914447 -19.391920 7.987875 -59.860242 -1.337533 3.266052 53.152678 5.911286 22.874497 -32.056722 170.728800 -0.000000 -16.486500 9.177874 -2.870915 -7.768302 11.803567 -24.077378 -32.057261 -0.389733 -5.942118 71.610711 0.522116 22.072804 19.340311 9.587800 -0.000000 -85.327400
-2.440492 15.538847 -0.314630 -135.237997 72.413689 -117.430840 -11.021433 -2.789814 -3.066735 -19.230274 8.090930 -59.348408 -1.286441 3.355633 54.504822 5.917132 22.993493 -32.967681 170.262401 0.000000 -15.945500 9.274437 -2.727835 -7.680449 11.324167 -23.455025 -32.348153 -0.602751 -5.975823 73.075783 0.402776 22.079377 21.243039 10.334700 -0.000000 -83.061700
-2.303471 15.510424 -0.354142 -136.298937 72.084452 -118.770800 -11.055215 -2.761459 -3.217270 -19.146300 8.186519 -58.738873 -1.258458 3.423777 55.597302 5.912184 23.031291 -33.822612 169.851200 0.000000 -15.432700 9.351725 -2.580127 -7.590090 10.914917 -22.768475 -32.710422 -0.806900 -6.006131 74.502138 0.286751 21.671228 22.798728 10.737300 -0.000000 -80.327600
-2.169392 15.486375 -0.395909 -137.558878 71.701261 -120.276313 -11.097146 -2.717733 -3.357829 -19.103864 8.250799 -58.037192 -1.248156 3.471509 56.452433 5.899713 23.006616 -34.619505 169.492900 0.000001 -15.025100 9.407365 -2.429855 -7.499447 10.583512 -22.030739 -33.141834 -1.006334 -6.032451 75.882401 0.173122 20.797542 23.957985 10.734799 0.000000 -77.335000
-2.038024 15.466480 -0.440180 -138.990425 71.257596 -121.921457 -11.147675 -2.661522 -3.482070 -19.082377 8.261364 -57.246105 -1.250621 3.499747 57.096825 5.882146 22.936699 -35.355027 169.183800 -0.000000 -14.758001 9.442842 -2.276372 -7.409285 10.319885 -21.255074 -33.638326 -1.204057 -6.054289 77.208944 0.059453 19.440874 24.685473 10.307800 -0.000000 -74.303900
-1.909320 15.450292 -0.487278 -140.542177 70.738763 -123.652167 -11.208950 -2.599414 -3.583824 -19.050686 8.197989 -56.385620 -1.260322 3.511466 57.572448 5.861517 22.835356 -36.035236 168.917200 -0.000000 -14.695800 9.456896 -2.120597 -7.320190 10.131204 -20.447599 -34.198220 -1.400832 -6.070288 78.469198 -0.057738 17.608090 24.967600 9.476700 -0.000000 -71.490400
-1.783051 15.437613 -0.537062 -142.179985 70.141180 -125.433006 -11.279400 -2.534061 -3.659438 -18.996378 8.045470 -55.471037 -1.273062 3.509119 57.915924 5.838711 22.711780 -36.660812 168.689500 -0.000000 -14.814700 9.451862 -1.961454 -7.231353 10.008070 -19.614288 -34.818626 -1.595567 -6.079942 79.650805 -0.181961 15.345001 24.800203 8.302200 -0.000000 -69.006001
-1.659133 15.428160 -0.589499 -143.860716 69.459304 -127.219434 -11.357287 -2.468374 -3.707224 -18.911894 7.796191 -54.522071 -1.285300 3.495350 58.162705 5.813616 22.569893 -37.231373 168.499300 0.000000 -15.050600 9.429882 -1.798636 -7.141498 9.941618 -18.758463 -35.497058 -1.785164 -6.083320 80.740179 -0.316268 12.728278 24.192419 6.876000 0.000000 -66.839699
-1.537308 15.421829 -0.643965 -145.563259 68.694354 -128.988842 -11.439097 -2.403230 -3.727125 -18.797942 7.448597 -53.556267 -1.295376 3.472793 58.342838 5.785965 22.408651 -37.753519 168.344000 -0.000000 -15.379100 9.394212 -1.631618 -7.048282 9.920255 -17.882586 -36.229944 -1.964928 -6.080566 81.720079 -0.463509 9.859655 23.178309 5.311100 -0.000000 -64.963400
-1.417456 15.418519 -0.700281 -147.253898 67.846850 -130.706454 -11.522025 -2.339930 -3.722323 -18.660140 7.013521 -52.590518 -1.302696 3.443714 58.477524 5.753856 22.220339 -38.225493 168.227700 0.000000 -15.693600 9.347619 -1.460889 -6.949607 9.931217 -16.987142 -37.014385 -2.129647 -6.072852 82.576881 -0.624584 6.859112 21.797816 3.724300 0.000000 -63.182000
-1.299298 15.418217 -0.757813 -148.917977 66.922396 -132.357257 -11.602663 -2.278433 -3.697278 -18.507777 6.508392 -51.637395 -1.308310 3.410060 58.579384 5.715180 21.993196 -38.648539 168.155000 -0.000000 -15.921100 9.293209 -1.287007 -6.842524 9.961460 -16.071766 -37.847049 -2.274174 -6.061103 83.297027 -0.799116 3.850854 20.114250 2.223700 0.000000 -61.317600
-1.182603 15.420868 -0.816280 -150.536246 65.925435 -133.923104 -11.678693 -2.218927 -3.657832 -18.350927 5.957260 -50.705038 -1.314141 3.373020 58.652568 5.667779 21.713966 -39.024847 168.130799 0.000000 -16.015700 9.233253 -1.111422 -6.723977 9.998706 -15.135312 -38.723849 -2.394051 -6.046197 83.869293 -0.984555 0.951103 18.202356 0.895000 0.000000 -59.223500
-1.067025 15.426486 -0.875295 -152.097766 64.864320 -135.394293 -11.748403 -2.161259 -3.610506 -18.198557 5.388411 -49.797332 -1.322754 3.333466 58.694089 5.609502 21.369458 -39.354654 168.161001 -0.000000 -15.944800 9.169469 -0.935844 -6.590976 10.033156 -14.175822 -39.640937 -2.486442 -6.028730 84.286936 -1.176017 -1.741407 16.140733 -0.206000 0.000000 -56.791201
-0.952293 15.435025 -0.934727 -153.590672 63.746570 -136.761906 -11.811365 -2.105566 -3.561566 -18.056488 4.830938 -48.914862 -1.336609 3.291785 58.696646 5.538614 20.949291 -39.637365 168.250200 0.000000 -15.699000 9.102512 -0.762454 -6.441035 10.057774 -13.191951 -40.594322 -2.550023 -6.009013 84.546904 -1.366643 -4.151814 14.003314 -1.054500 -0.000000 -53.984100
-0.838176 15.446325 -0.994684 -155.002151 62.579574 -138.017250 -11.868263 -2.052195 -3.516497 -17.927371 4.311602 -48.055375 -1.357603 3.247977 58.651172 5.454090 20.448204 -39.871414 168.400999 0.000000 -15.287900 9.032122 -0.593635 -6.272409 10.068288 -12.183096 -41.579929 -2.584851 -5.987086 84.649760 -1.548665 -6.231404 11.855691 -1.652500 0.000000 -50.835600
-0.724394 15.460256 -1.055269 -156.325818 61.372677 -139.158118 -11.920395 -2.001382 -3.479567 -17.810137 3.852911 -47.215850 -1.386955 3.202134 58.549415 5.355769 19.867162 -40.054317 168.612900 -0.000000 -14.739501 8.957415 -0.431488 -6.084505 10.063279 -11.150711 -42.594070 -2.592053 -5.962803 84.598942 -1.714356 -7.955358 9.746725 -2.021800 -0.000000 -47.417300
-0.610756 15.476610 -1.116845 -157.553882 60.133876 -140.182039 -11.969871 -1.953313 -3.453313 -17.701033 3.471381 -46.392749 -1.424883 3.154268 58.386100 5.244376 19.213456 -40.183872 168.881901 0.000000 -14.098400 8.876916 -0.278007 -5.877653 10.043394 -10.098955 -43.633004 -2.573193 -5.935881 84.399550 -1.857308 -9.320062 7.711387 -2.196500 -0.000000 -43.828200
-0.497098 15.495166 -1.179717 -158.685550 58.871903 -141.092967 -12.018701 -1.908029 -3.438915 -17.594927 3.175890 -45.584198 -1.470675 3.104715 58.160778 5.121433 18.500116 -40.257631 169.200999 -0.000000 -13.411800 8.789087 -0.134327 -5.653567 10.010371 -9.035304 -44.693430 -2.530024 -5.906022 84.056996 -1.973406 -10.340234 5.774522 -2.216500 -0.000000 -40.199001
-0.383453 15.515648 -1.244333 -159.719101 57.592954 -141.895164 -12.068952 -1.865399 -3.435934 -17.486388 2.968144 -44.788949 -1.522610 3.053888 57.878425 4.989188 17.745197 -40.274110 169.560100 0.000000 -12.725800 8.692471 -0.001077 -5.414985 9.966515 -7.971915 -45.772578 -2.464151 -5.873086 83.576406 -2.061036 -11.044517 3.953922 -2.123001 -0.000000 -36.669100
-0.269776 15.537841 -1.311074 -160.658894 56.303465 -142.597448 -12.122297 -1.824935 -3.442701 -17.369965 2.843473 -44.007897 -1.578471 3.002567 57.548334 4.850097 16.968285 -40.231881 169.948500 -0.000000 -12.073100 8.585834 0.121816 -5.165549 9.915403 -6.924490 -46.867731 -2.377063 -5.836843 82.960735 -2.121171 -11.472618 2.266189 -1.955600 -0.000000 -33.388400
-0.156109 15.561530 -1.380206 -161.512627 55.008522 -143.211542 -12.179601 -1.785804 -3.456564 -17.242099 2.790664 -43.242465 -1.635555 2.951635 57.183794 4.706710 16.189543 -40.129734 170.354900 -0.000000 -11.466400 8.468703 0.235050 -4.909837 9.860797 -5.913010 -47.976367 -2.270302 -5.797350 82.211768 -2.156905 -11.671526 0.728930 -1.749400 0.000001 -30.520800
-0.042479 15.586558 -1.451934 -162.289942 53.712262 -143.750431 -12.241258 -1.746814 -3.474378 -17.100553 2.795713 -42.494507 -1.691169 2.902118 56.799957 4.561129 15.426305 -39.966372 170.769800 -0.000000 -10.892500 8.341065 0.339479 -4.652666 9.808156 -4.959169 -49.095473 -2.145373 -5.754637 81.328213 -2.172836 -11.692007 -0.638450 -1.534099 -0.000000 -28.233200
0.071054 15.612804 -1.526405 -163.001292 52.417568 -144.227169 -12.306950 -1.706674 -3.492753 -16.944481 2.842255 -41.766251 -1.742856 2.854971 56.411761 4.414676 14.690716 -39.739926 171.186201 -0.000000 -10.313700 8.203649 0.435856 -4.399312 9.764302 -4.086267 -50.221064 -2.003761 -5.709042 80.307342 -2.174063 -11.583233 -1.818643 -1.332100 0.000000 -26.667499
0.184426 15.640126 -1.603631 -163.656821 51.127107 -144.654011 -12.375871 -1.663881 -3.508539 -16.774599 2.914191 -41.058080 -1.788672 2.810926 56.031845 4.267939 13.989574 -39.448680 171.600100 -0.000000 -9.672401 8.057813 0.524522 -4.154767 9.737688 -3.315802 -51.347973 -1.846747 -5.661137 79.145453 -2.165502 -11.389377 -2.801565 -1.158000 0.000000 -25.909900
0.297790 15.668510 -1.683477 -164.269655 49.844522 -145.043929 -12.446597 -1.616812 -3.519128 -16.591928 2.997619 -40.369785 -1.827465 2.770629 55.669709 4.120396 13.322188 -39.089857 172.011300 -0.000000 -8.900300 7.905554 0.605288 -3.923366 9.738845 -2.665507 -52.470268 -1.675159 -5.611726 77.838332 -2.151230 -11.145772 -3.588511 -1.018801 -0.000000 -25.967300
0.411086 15.697803 -1.765980 -164.844609 48.572189 -145.402930 -12.518153 -1.564354 -3.522572 -16.396936 3.082286 -39.699616 -1.858691 2.734246 55.329904 3.970644 12.681783 -38.660631 172.422400 -0.000000 -7.921900 7.748704 0.676971 -3.708438 9.780079 -2.146987 -53.580625 -1.488981 -5.561740 76.382485 -2.134031 -10.876962 -4.192866 -0.915500 -0.000000 -26.760300
0.524563 15.727926 -1.850930 -165.390389 47.316344 -145.739733 -12.588945 -1.505339 -3.517885 -16.189926 3.162515 -39.043665 -1.883310 2.701752 55.012078 3.817343 12.056092 -38.166420 172.836300 -0.000000 -6.737300 7.589588 0.738069 -3.512379 9.874303 -1.766878 -54.672305 -1.287502 -5.512452 74.778120 -2.114918 -10.593529 -4.643870 -0.843400 0.000000 -28.105200
